<?xml version="1.0" standalone="no"?>
<!DOCTYPE svg PUBLIC "-//W3C//DTD SVG 20010904//EN"
 "http://www.w3.org/TR/2001/REC-SVG-20010904/DTD/svg10.dtd">
<svg version="1.0" xmlns="http://www.w3.org/2000/svg"
 width="454.000000pt" height="406.000000pt" viewBox="0 0 454.000000 406.000000"
 preserveAspectRatio="xMidYMid meet">

<g transform="translate(0.000000,406.000000) scale(0.100000,-0.100000)"
fill="#000000" stroke="none">
<path d="M1182 4013 c-62 -31 -63 -44 0 -15 24 11 54 25 68 30 21 9 22 11 5
11 -11 0 -44 -11 -73 -26z"/>
<path d="M1508 4018 c17 -17 35 -23 70 -23 26 -1 58 -4 72 -8 l25 -8 -25 15
c-14 9 -35 15 -47 16 -12 0 -25 5 -28 10 -3 6 -14 10 -23 9 -12 0 -11 -3 6 -9
27 -11 29 -20 4 -20 -11 0 -29 9 -42 20 -31 27 -40 25 -12 -2z"/>
<path d="M3008 4028 c-16 -5 -28 -13 -28 -18 0 -5 14 -3 30 3 17 6 30 15 30
19 0 4 -1 8 -2 7 -2 0 -15 -5 -30 -11z"/>
<path d="M3050 4030 c0 -13 11 -13 30 0 12 8 11 10 -7 10 -13 0 -23 -4 -23
-10z"/>
<path d="M3310 4034 c0 -7 67 -34 82 -34 16 0 -29 24 -60 32 -12 4 -22 4 -22
2z"/>
<path d="M2920 3995 c-16 -9 -19 -14 -9 -15 8 0 24 7 35 15 24 18 7 19 -26 0z"/>
<path d="M3460 3948 c55 -52 102 -116 115 -159 8 -25 35 -56 35 -40 0 5 -4 12
-9 15 -5 3 -12 18 -16 33 -7 31 -61 110 -90 134 -11 9 -33 29 -48 43 -15 14
-31 26 -35 26 -4 0 18 -23 48 -52z"/>
<path d="M1680 3960 c0 -5 12 -10 28 -10 21 0 24 2 12 10 -20 13 -40 13 -40 0z"/>
<path d="M1060 3929 c-19 -17 -28 -28 -20 -24 8 5 25 17 38 29 20 18 24 18 33
6 9 -13 10 -13 7 -1 -7 25 -22 22 -58 -10z"/>
<path d="M2795 3939 c-44 -22 -73 -45 -40 -33 30 12 101 54 90 53 -5 0 -28 -9
-50 -20z"/>
<path d="M2860 3945 c-11 -13 -10 -14 4 -9 9 3 16 10 16 15 0 13 -6 11 -20 -6z"/>
<path d="M1740 3939 c0 -5 9 -9 20 -9 11 0 20 -4 20 -9 0 -5 10 -11 23 -14 21
-6 21 -6 -3 13 -29 22 -60 32 -60 19z"/>
<path d="M1085 3920 c-3 -5 -1 -10 4 -10 6 0 11 5 11 10 0 6 -2 10 -4 10 -3 0
-8 -4 -11 -10z"/>
<path d="M2815 3920 c-3 -5 -1 -10 4 -10 6 0 11 5 11 10 0 6 -2 10 -4 10 -3 0
-8 -4 -11 -10z"/>
<path d="M1258 3893 c7 -3 16 -2 19 1 4 3 -2 6 -13 5 -11 0 -14 -3 -6 -6z"/>
<path d="M1506 3888 c3 -5 10 -6 15 -3 13 9 11 12 -6 12 -8 0 -12 -4 -9 -9z"/>
<path d="M1840 3893 c0 -13 84 -73 103 -73 7 0 -10 15 -38 32 -27 18 -53 37
-57 43 -5 6 -8 6 -8 -2z"/>
<path d="M3048 3893 c6 -2 18 -2 25 0 6 3 1 5 -13 5 -14 0 -19 -2 -12 -5z"/>
<path d="M2655 3855 c-35 -24 -43 -34 -27 -32 11 0 19 4 17 8 -3 3 13 15 35
25 22 10 40 22 40 27 0 14 -17 7 -65 -28z"/>
<path d="M1015 3870 c-3 -6 1 -7 9 -4 18 7 21 14 7 14 -6 0 -13 -4 -16 -10z"/>
<path d="M1555 3873 c11 -3 26 -10 33 -15 8 -7 12 -7 12 0 0 12 -25 22 -48 21
-13 -1 -12 -3 3 -6z"/>
<path d="M3330 3870 c0 -6 3 -10 8 -10 11 0 64 -48 85 -78 11 -15 16 -19 13
-8 -14 40 -106 124 -106 96z"/>
<path d="M1130 3860 c0 -5 5 -10 11 -10 5 0 7 5 4 10 -3 6 -8 10 -11 10 -2 0
-4 -4 -4 -10z"/>
<path d="M1164 3845 c-14 -14 -29 -23 -35 -20 -5 3 -6 -2 -2 -11 6 -16 8 -16
22 2 9 11 27 27 41 37 13 9 19 17 12 17 -7 0 -24 -11 -38 -25z"/>
<path d="M3395 3860 c3 -5 8 -10 11 -10 2 0 4 5 4 10 0 6 -5 10 -11 10 -5 0
-7 -4 -4 -10z"/>
<path d="M1638 3843 c7 -3 16 -2 19 1 4 3 -2 6 -13 5 -11 0 -14 -3 -6 -6z"/>
<path d="M3520 3841 c0 -6 4 -13 10 -16 6 -3 7 1 4 9 -7 18 -14 21 -14 7z"/>
<path d="M1690 3810 c8 -5 20 -10 25 -10 6 0 3 5 -5 10 -8 5 -19 10 -25 10 -5
0 -3 -5 5 -10z"/>
<path d="M1730 3816 c0 -3 9 -10 20 -16 11 -6 20 -8 20 -6 0 3 -9 10 -20 16
-11 6 -20 8 -20 6z"/>
<path d="M2580 3805 c-8 -9 -8 -15 -2 -15 12 0 26 19 19 26 -2 2 -10 -2 -17
-11z"/>
<path d="M2810 3810 c0 -6 7 -10 15 -10 8 0 15 2 15 4 0 2 -7 6 -15 10 -8 3
-15 1 -15 -4z"/>
<path d="M1964 3795 c11 -8 22 -12 25 -9 6 6 -19 24 -34 24 -5 -1 -1 -7 9 -15z"/>
<path d="M2765 3800 c-3 -5 -1 -10 4 -10 6 0 11 5 11 10 0 6 -2 10 -4 10 -3 0
-8 -4 -11 -10z"/>
<path d="M980 3789 c0 -5 5 -7 10 -4 6 3 10 8 10 11 0 2 -4 4 -10 4 -5 0 -10
-5 -10 -11z"/>
<path d="M1108 3783 c-12 -3 -18 -14 -17 -31 0 -16 3 -21 6 -12 3 8 12 23 21
33 8 9 13 16 11 16 -2 -1 -12 -3 -21 -6z"/>
<path d="M2550 3784 c0 -5 -12 -17 -27 -26 -16 -10 -23 -18 -17 -18 18 0 60
37 52 46 -5 4 -8 3 -8 -2z"/>
<path d="M2790 3780 c-9 -6 -10 -10 -3 -10 6 0 15 5 18 10 8 12 4 12 -15 0z"/>
<path d="M1757 3769 c7 -7 15 -10 18 -7 3 3 -2 9 -12 12 -14 6 -15 5 -6 -5z"/>
<path d="M2004 3771 c4 -6 16 -16 28 -22 15 -8 18 -8 14 0 -4 6 -16 16 -28 22
-15 8 -18 8 -14 0z"/>
<path d="M1951 3754 c0 -11 3 -14 6 -6 3 7 2 16 -1 19 -3 4 -6 -2 -5 -13z"/>
<path d="M1980 3757 c0 -10 8 -17 18 -17 9 0 13 4 7 8 -5 4 -13 11 -17 16 -5
5 -8 2 -8 -7z"/>
<path d="M2703 3731 c-62 -44 -77 -59 -43 -41 48 25 121 81 103 79 -4 0 -31
-17 -60 -38z"/>
<path d="M1050 3751 c0 -6 4 -13 10 -16 6 -3 7 1 4 9 -7 18 -14 21 -14 7z"/>
<path d="M1790 3756 c0 -3 9 -10 20 -16 11 -6 20 -8 20 -6 0 3 -9 10 -20 16
-11 6 -20 8 -20 6z"/>
<path d="M3605 3715 c14 -39 23 -70 30 -99 3 -15 8 -26 11 -23 8 8 -18 100
-34 122 l-14 20 7 -20z"/>
<path d="M2085 3692 c0 -14 7 -27 15 -29 13 -4 13 -3 0 6 -8 5 -11 13 -7 17 4
4 16 -1 27 -11 11 -10 22 -16 25 -13 3 3 -9 17 -28 31 l-33 25 1 -26z"/>
<path d="M2435 3690 c-27 -27 -27 -29 -8 -27 12 0 19 5 17 9 -3 5 5 17 18 28
13 11 19 19 13 19 -5 0 -23 -13 -40 -29z"/>
<path d="M3461 3704 c0 -11 3 -14 6 -6 3 7 2 16 -1 19 -3 4 -6 -2 -5 -13z"/>
<path d="M1874 3695 c11 -8 24 -15 30 -15 5 0 1 7 -10 15 -10 8 -23 14 -29 14
-5 0 -1 -6 9 -14z"/>
<path d="M921 3674 c0 -11 3 -14 6 -6 3 7 2 16 -1 19 -3 4 -6 -2 -5 -13z"/>
<path d="M1056 3649 c-8 -42 0 -50 9 -9 4 17 5 34 2 36 -2 3 -7 -10 -11 -27z"/>
<path d="M3505 3659 c-4 -6 -5 -12 -2 -15 2 -3 7 2 10 11 7 17 1 20 -8 4z"/>
<path d="M2376 3639 c-11 -11 -15 -19 -9 -19 12 0 38 28 32 34 -2 2 -13 -5
-23 -15z"/>
<path d="M920 3641 c0 -5 5 -13 10 -16 6 -3 10 -2 10 4 0 5 -4 13 -10 16 -5 3
-10 2 -10 -4z"/>
<path d="M2160 3641 c0 -5 16 -21 35 -35 43 -33 46 -24 4 15 -33 31 -39 34
-39 20z"/>
<path d="M2519 3633 c-13 -16 -12 -17 4 -4 16 13 21 21 13 21 -2 0 -10 -8 -17
-17z"/>
<path d="M3480 3645 c0 -5 5 -17 10 -25 5 -8 10 -10 10 -5 0 6 -5 17 -10 25
-5 8 -10 11 -10 5z"/>
<path d="M1960 3630 c0 -5 5 -10 11 -10 5 0 7 5 4 10 -3 6 -8 10 -11 10 -2 0
-4 -4 -4 -10z"/>
<path d="M2548 3613 c-18 -15 -36 -32 -39 -37 -4 -5 -12 -6 -18 -2 -7 5 -9 1
-5 -9 7 -17 7 -17 79 47 39 36 27 36 -17 1z"/>
<path d="M3600 3620 c0 -5 5 -10 10 -10 6 0 10 5 10 10 0 6 -4 10 -10 10 -5 0
-10 -4 -10 -10z"/>
<path d="M1045 3580 c3 -5 8 -10 11 -10 2 0 4 5 4 10 0 6 -5 10 -11 10 -5 0
-7 -4 -4 -10z"/>
<path d="M2240 3575 c0 -8 4 -15 10 -15 5 0 7 7 4 15 -4 8 -8 15 -10 15 -2 0
-4 -7 -4 -15z"/>
<path d="M3605 3580 c-3 -6 1 -7 9 -4 18 7 21 14 7 14 -6 0 -13 -4 -16 -10z"/>
<path d="M2036 3565 c10 -8 24 -14 29 -14 6 0 1 6 -9 14 -11 8 -24 15 -30 15
-5 0 -1 -7 10 -15z"/>
<path d="M3643 3543 c1 -24 5 -43 10 -43 10 0 8 52 -3 70 -7 11 -9 3 -7 -27z"/>
<path d="M922 3550 c0 -14 2 -19 5 -12 2 6 2 18 0 25 -3 6 -5 1 -5 -13z"/>
<path d="M2295 3560 c-3 -5 -1 -10 4 -10 6 0 11 5 11 10 0 6 -2 10 -4 10 -3 0
-8 -4 -11 -10z"/>
<path d="M2075 3530 c3 -5 11 -10 16 -10 6 0 7 5 4 10 -3 6 -11 10 -16 10 -6
0 -7 -4 -4 -10z"/>
<path d="M2270 3536 c0 -2 7 -9 15 -16 12 -10 15 -10 15 4 0 9 -7 16 -15 16
-8 0 -15 -2 -15 -4z"/>
<path d="M2450 3530 c-9 -6 -10 -10 -3 -10 6 0 15 5 18 10 8 12 4 12 -15 0z"/>
<path d="M3621 3514 c0 -11 3 -14 6 -6 3 7 2 16 -1 19 -3 4 -6 -2 -5 -13z"/>
<path d="M895 3510 c-3 -5 -1 -10 4 -10 6 0 11 5 11 10 0 6 -2 10 -4 10 -3 0
-8 -4 -11 -10z"/>
<path d="M2404 3485 c-10 -8 -14 -15 -8 -15 6 0 17 7 24 15 16 19 9 19 -16 0z"/>
<path d="M893 3455 c0 -22 2 -30 4 -17 2 12 2 30 0 40 -3 9 -5 -1 -4 -23z"/>
<path d="M2130 3481 c0 -5 7 -12 16 -15 14 -5 15 -4 4 9 -14 17 -20 19 -20 6z"/>
<path d="M3652 3455 c0 -16 2 -22 5 -12 2 9 2 23 0 30 -3 6 -5 -1 -5 -18z"/>
<path d="M922 3445 c0 -16 2 -22 5 -12 2 9 2 23 0 30 -3 6 -5 -1 -5 -18z"/>
<path d="M2400 3410 c0 -12 53 -61 59 -54 3 2 -10 18 -27 34 -18 16 -32 25
-32 20z"/>
<path d="M2118 3376 c-10 -7 -18 -16 -18 -19 0 -12 28 4 34 19 6 17 6 17 -16
0z"/>
<path d="M892 3320 c0 -14 2 -19 5 -12 2 6 2 18 0 25 -3 6 -5 1 -5 -13z"/>
<path d="M921 3324 c0 -11 3 -14 6 -6 3 7 2 16 -1 19 -3 4 -6 -2 -5 -13z"/>
<path d="M2048 3296 l-27 -33 26 0 c17 0 21 2 12 8 -10 6 -9 12 6 28 10 12 16
23 14 26 -3 2 -17 -11 -31 -29z"/>
<path d="M2290 3327 c0 -16 69 -79 82 -74 11 4 11 6 0 6 -7 1 -29 18 -47 39
-19 20 -35 33 -35 29z"/>
<path d="M3631 3314 c0 -11 3 -14 6 -6 3 7 2 16 -1 19 -3 4 -6 -2 -5 -13z"/>
<path d="M2492 3305 c8 -11 20 -28 25 -39 6 -10 13 -15 15 -10 3 5 -8 23 -25
39 -17 17 -24 21 -15 10z"/>
<path d="M2207 3293 c-4 -3 -7 -11 -7 -17 0 -6 5 -5 12 2 6 6 9 14 7 17 -3 3
-9 2 -12 -2z"/>
<path d="M3612 3280 c0 -14 2 -19 5 -12 2 6 2 18 0 25 -3 6 -5 1 -5 -13z"/>
<path d="M3636 3265 c-3 -9 -6 -24 -5 -33 0 -9 5 -4 10 12 9 32 6 48 -5 21z"/>
<path d="M2175 3240 c-10 -11 -16 -22 -14 -24 2 -2 12 7 22 20 22 29 17 32 -8
4z"/>
<path d="M1982 3220 c-7 -11 -8 -20 -3 -20 9 0 24 30 18 36 -1 2 -8 -6 -15
-16z"/>
<path d="M2095 3230 c-3 -5 -1 -10 4 -10 6 0 11 5 11 10 0 6 -2 10 -4 10 -3 0
-8 -4 -11 -10z"/>
<path d="M2540 3230 c0 -5 7 -10 16 -10 8 0 12 5 9 10 -3 6 -10 10 -16 10 -5
0 -9 -4 -9 -10z"/>
<path d="M2130 3204 c0 -8 5 -12 10 -9 6 3 10 10 10 16 0 5 -4 9 -10 9 -5 0
-10 -7 -10 -16z"/>
<path d="M2580 3206 c0 -15 41 -66 53 -65 9 0 8 2 0 6 -7 2 -13 9 -13 14 0 6
-9 19 -20 31 -11 12 -20 18 -20 14z"/>
<path d="M931 3164 c0 -11 3 -14 6 -6 3 7 2 16 -1 19 -3 4 -6 -2 -5 -13z"/>
<path d="M2103 3168 c-24 -32 -24 -41 0 -19 15 14 27 26 27 28 0 8 -19 2 -27
-9z"/>
<path d="M2437 3156 c10 -13 19 -23 21 -21 5 5 -22 45 -31 45 -4 0 0 -11 10
-24z"/>
<path d="M901 3154 c0 -11 3 -14 6 -6 3 7 2 16 -1 19 -3 4 -6 -2 -5 -13z"/>
<path d="M1925 3150 c-10 -11 -15 -23 -12 -27 4 -3 7 -1 7 5 0 7 6 12 14 12 8
0 16 7 20 15 8 21 -8 19 -29 -5z"/>
<path d="M1048 3130 c2 -16 6 -30 8 -30 2 0 4 14 4 30 0 17 -4 30 -8 30 -5 0
-7 -13 -4 -30z"/>
<path d="M3637 3143 c-4 -3 -7 -13 -7 -22 1 -13 3 -13 11 2 11 19 8 33 -4 20z"/>
<path d="M3612 3100 c0 -14 2 -19 5 -12 2 6 2 18 0 25 -3 6 -5 1 -5 -13z"/>
<path d="M1873 3080 c-9 -16 -20 -30 -24 -30 -4 0 -10 -8 -13 -17 -5 -13 -1
-12 17 5 14 13 27 20 29 15 3 -4 3 -2 1 5 -1 7 2 22 7 33 17 31 3 22 -17 -11z"/>
<path d="M2658 3103 c6 -2 12 -11 12 -18 0 -13 39 -66 40 -53 0 15 -43 78 -53
77 -8 0 -8 -2 1 -6z"/>
<path d="M2040 3085 c-7 -9 -8 -15 -2 -15 5 0 12 7 16 15 3 8 4 15 2 15 -2 0
-9 -7 -16 -15z"/>
<path d="M2502 3071 c13 -17 27 -30 31 -30 11 -1 -25 47 -41 54 -8 3 -3 -8 10
-24z"/>
<path d="M2541 3091 c-8 -5 -9 -11 -3 -15 5 -3 12 1 16 9 6 17 6 18 -13 6z"/>
<path d="M3625 3060 c-4 -23 -5 -43 -2 -46 2 -3 7 14 11 37 4 23 5 44 2 46 -2
2 -7 -14 -11 -37z"/>
<path d="M1050 3068 c0 -16 5 -28 10 -28 13 0 13 20 0 40 -8 12 -10 9 -10 -12z"/>
<path d="M2006 3044 c-9 -24 -2 -26 12 -4 7 11 8 20 3 20 -5 0 -12 -7 -15 -16z"/>
<path d="M3476 3028 c-7 -28 -8 -73 -1 -66 6 6 17 88 11 88 -2 0 -6 -10 -10
-22z"/>
<path d="M2630 3020 c-9 -6 -10 -10 -3 -10 6 0 15 5 18 10 8 12 4 12 -15 0z"/>
<path d="M1950 3010 c0 -6 5 -8 10 -5 6 3 10 1 10 -4 0 -6 -5 -11 -11 -11 -6
0 -9 -10 -7 -22 3 -22 8 -23 86 -24 45 -1 85 2 87 7 3 4 -33 5 -80 3 -72 -5
-85 -3 -85 10 0 8 10 22 22 30 12 9 17 16 11 16 -6 0 -18 3 -27 6 -9 3 -16 1
-16 -6z"/>
<path d="M1800 2980 c-12 -16 -17 -30 -12 -30 5 0 15 11 22 25 7 13 17 22 22
19 4 -3 8 0 8 5 0 20 -19 11 -40 -19z"/>
<path d="M2550 3006 c0 -3 9 -10 20 -16 11 -6 20 -8 20 -6 0 3 -9 10 -20 16
-11 6 -20 8 -20 6z"/>
<path d="M2730 2991 c13 -26 39 -51 51 -51 6 0 3 7 -5 16 -9 8 -21 24 -26 35
-6 10 -15 19 -21 19 -6 0 -6 -7 1 -19z"/>
<path d="M1072 2980 c0 -14 2 -19 5 -12 2 6 2 18 0 25 -3 6 -5 1 -5 -13z"/>
<path d="M2610 2976 c0 -4 7 -14 15 -22 8 -9 15 -11 15 -6 0 5 -7 15 -15 22
-8 7 -15 9 -15 6z"/>
<path d="M3497 2973 c-4 -3 -7 -11 -7 -17 0 -6 5 -5 12 2 6 6 9 14 7 17 -3 3
-9 2 -12 -2z"/>
<path d="M942 2941 c0 -17 1 -31 3 -31 7 0 12 39 5 49 -4 7 -7 -1 -8 -18z"/>
<path d="M2266 2952 c-3 -5 24 -9 59 -10 35 -1 66 1 69 6 2 4 -24 8 -60 9 -35
1 -65 -1 -68 -5z"/>
<path d="M2523 2943 c9 -2 25 -2 35 0 9 3 1 5 -18 5 -19 0 -27 -2 -17 -5z"/>
<path d="M3462 2915 c0 -16 2 -22 5 -12 2 9 2 23 0 30 -3 6 -5 -1 -5 -18z"/>
<path d="M1675 2920 c-3 -6 1 -7 9 -4 18 7 21 14 7 14 -6 0 -13 -4 -16 -10z"/>
<path d="M2825 2920 c17 -4 50 -8 75 -8 40 0 42 1 15 8 -16 4 -50 8 -75 8 -40
0 -42 -1 -15 -8z"/>
<path d="M1090 2890 c0 -16 4 -30 8 -30 5 0 7 14 4 30 -2 17 -6 30 -8 30 -2 0
-4 -13 -4 -30z"/>
<path d="M1626 2905 c4 -8 7 -15 9 -15 2 0 5 7 9 15 3 9 0 15 -9 15 -9 0 -12
-6 -9 -15z"/>
<path d="M1540 2900 c-13 -8 -12 -10 3 -10 9 0 17 5 17 10 0 12 -1 12 -20 0z"/>
<path d="M3030 2898 c0 -4 24 -7 53 -7 54 1 49 5 -15 11 -21 2 -38 0 -38 -4z"/>
<path d="M1443 2893 c15 -2 39 -2 55 0 15 2 2 4 -28 4 -30 0 -43 -2 -27 -4z"/>
<path d="M1595 2891 c-3 -5 -2 -12 3 -15 5 -3 9 1 9 9 0 17 -3 19 -12 6z"/>
<path d="M1688 2893 c7 -3 16 -2 19 1 4 3 -2 6 -13 5 -11 0 -14 -3 -6 -6z"/>
<path d="M2848 2893 c6 -2 18 -2 25 0 6 3 1 5 -13 5 -14 0 -19 -2 -12 -5z"/>
<path d="M1365 2880 c-22 -4 -30 -8 -18 -9 12 0 28 -4 36 -7 8 -3 17 2 20 10
4 9 5 15 4 15 -1 -1 -20 -5 -42 -9z"/>
<path d="M3160 2880 c14 -4 36 -8 50 -8 23 -1 23 0 5 8 -11 5 -33 8 -50 8 -29
0 -29 0 -5 -8z"/>
<path d="M1435 2870 c4 -6 11 -8 16 -5 14 9 11 15 -7 15 -8 0 -12 -5 -9 -10z"/>
<path d="M1480 2876 c0 -2 11 -6 25 -8 13 -3 22 -1 19 3 -5 9 -44 13 -44 5z"/>
<path d="M1738 2873 c7 -3 16 -2 19 1 4 3 -2 6 -13 5 -11 0 -14 -3 -6 -6z"/>
<path d="M2998 2873 c7 -3 16 -2 19 1 4 3 -2 6 -13 5 -11 0 -14 -3 -6 -6z"/>
<path d="M3048 2873 c7 -3 16 -2 19 1 4 3 -2 6 -13 5 -11 0 -14 -3 -6 -6z"/>
<path d="M3572 2840 c-14 -23 -15 -30 -3 -30 8 0 24 41 18 47 -2 1 -8 -7 -15
-17z"/>
<path d="M3360 2840 c0 -4 11 -11 24 -14 13 -3 32 -9 43 -12 16 -6 15 -5 -2 8
-24 18 -65 29 -65 18z"/>
<path d="M1155 2830 c-3 -5 -2 -10 4 -10 5 0 13 5 16 10 3 6 2 10 -4 10 -5 0
-13 -4 -16 -10z"/>
<path d="M1888 2823 c6 -2 18 -2 25 0 6 3 1 5 -13 5 -14 0 -19 -2 -12 -5z"/>
<path d="M2545 2810 c3 -5 8 -10 11 -10 2 0 4 5 4 10 0 6 -5 10 -11 10 -5 0
-7 -4 -4 -10z"/>
<path d="M3586 2783 c5 -5 12 -12 15 -16 3 -5 9 -2 12 7 5 12 0 16 -15 16 -12
0 -17 -3 -12 -7z"/>
<path d="M920 2769 c0 -5 5 -7 10 -4 6 3 10 8 10 11 0 2 -4 4 -10 4 -5 0 -10
-5 -10 -11z"/>
<path d="M1518 2768 c5 -5 16 -8 23 -6 8 3 3 7 -10 11 -17 4 -21 3 -13 -5z"/>
<path d="M1608 2773 c7 -3 16 -2 19 1 4 3 -2 6 -13 5 -11 0 -14 -3 -6 -6z"/>
<path d="M1810 2765 c-7 -9 -8 -15 -2 -15 5 0 12 7 16 15 3 8 4 15 2 15 -2 0
-9 -7 -16 -15z"/>
<path d="M2938 2773 c7 -3 16 -2 19 1 4 3 -2 6 -13 5 -11 0 -14 -3 -6 -6z"/>
<path d="M3639 2767 c7 -9 26 -17 41 -17 14 0 30 -3 34 -7 4 -5 19 -8 32 -8
35 -1 16 11 -36 23 -25 5 -54 13 -65 18 -18 7 -18 6 -6 -9z"/>
<path d="M3198 2763 c6 -2 18 -2 25 0 6 3 1 5 -13 5 -14 0 -19 -2 -12 -5z"/>
<path d="M840 2750 c-11 -7 -5 -8 20 -4 43 8 51 14 19 14 -13 0 -31 -5 -39
-10z"/>
<path d="M1265 2750 c-13 -6 -15 -9 -5 -9 8 0 22 4 30 9 18 12 2 12 -25 0z"/>
<path d="M2740 2754 c0 -5 7 -18 15 -28 8 -11 15 -16 15 -10 0 5 -7 18 -15 28
-8 11 -15 16 -15 10z"/>
<path d="M2881 2744 c0 -11 3 -14 6 -6 3 7 2 16 -1 19 -3 4 -6 -2 -5 -13z"/>
<path d="M3073 2753 c9 -2 25 -2 35 0 9 3 1 5 -18 5 -19 0 -27 -2 -17 -5z"/>
<path d="M1335 2740 c-28 -7 -28 -8 -5 -9 14 0 32 4 40 9 17 11 8 11 -35 0z"/>
<path d="M798 2733 c7 -3 16 -2 19 1 4 3 -2 6 -13 5 -11 0 -14 -3 -6 -6z"/>
<path d="M1780 2729 c0 -5 5 -7 10 -4 6 3 10 8 10 11 0 2 -4 4 -10 4 -5 0 -10
-5 -10 -11z"/>
<path d="M2910 2730 c0 -5 5 -10 10 -10 6 0 10 5 10 10 0 6 -4 10 -10 10 -5 0
-10 -4 -10 -10z"/>
<path d="M3609 2723 c-12 -16 -12 -17 1 -7 8 6 22 14 30 17 13 5 12 6 -1 6 -9
1 -23 -7 -30 -16z"/>
<path d="M3675 2730 c-3 -5 -1 -10 4 -10 6 0 11 5 11 10 0 6 -2 10 -4 10 -3 0
-8 -4 -11 -10z"/>
<path d="M1620 2719 c0 -5 5 -7 10 -4 6 3 10 8 10 11 0 2 -4 4 -10 4 -5 0 -10
-5 -10 -11z"/>
<path d="M3263 2723 c9 -2 23 -2 30 0 6 3 -1 5 -18 5 -16 0 -22 -2 -12 -5z"/>
<path d="M738 2713 c7 -3 16 -2 19 1 4 3 -2 6 -13 5 -11 0 -14 -3 -6 -6z"/>
<path d="M3798 2713 c7 -3 16 -2 19 1 4 3 -2 6 -13 5 -11 0 -14 -3 -6 -6z"/>
<path d="M1760 2700 c0 -14 -60 -95 -68 -93 -4 1 -7 -12 -8 -28 -1 -16 0 -29
1 -29 2 0 12 19 23 43 11 23 32 56 46 72 28 32 32 45 16 45 -5 0 -10 -5 -10
-10z"/>
<path d="M2783 2702 c-9 -6 -5 -16 13 -37 24 -28 24 -28 9 -3 -9 15 -14 32
-10 38 7 12 4 12 -12 2z"/>
<path d="M2951 2681 c13 -18 18 -34 14 -43 -5 -7 -4 -9 0 -5 5 4 15 -3 22 -15
7 -13 12 -18 13 -12 0 18 -50 104 -61 104 -5 0 0 -13 12 -29z"/>
<path d="M3328 2703 c6 -2 18 -2 25 0 6 3 1 5 -13 5 -14 0 -19 -2 -12 -5z"/>
<path d="M650 2684 c-23 -13 -24 -14 -4 -14 12 0 27 7 34 15 15 18 4 18 -30
-1z"/>
<path d="M3545 2690 c4 -6 11 -8 16 -5 14 9 11 15 -7 15 -8 0 -12 -5 -9 -10z"/>
<path d="M3860 2695 c0 -3 21 -14 48 -26 26 -11 55 -25 64 -30 13 -7 16 -5 12
6 -4 8 -12 15 -20 15 -7 0 -29 9 -49 20 -35 20 -55 25 -55 15z"/>
<path d="M893 2683 c9 -2 23 -2 30 0 6 3 -1 5 -18 5 -16 0 -22 -2 -12 -5z"/>
<path d="M1681 2678 c-1 -22 18 -33 32 -19 9 9 8 11 -5 6 -11 -4 -18 0 -21 12
-4 15 -5 16 -6 1z"/>
<path d="M1579 2653 c-22 -46 -22 -50 1 -15 13 18 20 35 18 37 -3 3 -11 -7
-19 -22z"/>
<path d="M560 2645 c-25 -13 -42 -24 -38 -25 11 0 98 39 98 45 0 9 -14 5 -60
-20z"/>
<path d="M975 2660 c-3 -5 -1 -10 4 -10 6 0 11 5 11 10 0 6 -2 10 -4 10 -3 0
-8 -4 -11 -10z"/>
<path d="M1167 2625 c8 -25 19 -47 24 -51 13 -7 11 -1 -6 32 -8 16 -15 37 -15
47 0 9 -4 17 -9 17 -6 0 -3 -20 6 -45z"/>
<path d="M640 2649 c0 -5 5 -7 10 -4 6 3 10 8 10 11 0 2 -4 4 -10 4 -5 0 -10
-5 -10 -11z"/>
<path d="M2840 2651 c0 -5 5 -13 10 -16 6 -3 10 -2 10 4 0 5 -4 13 -10 16 -5
3 -10 2 -10 -4z"/>
<path d="M3590 2640 c14 -4 32 -8 40 -9 13 -1 13 0 0 9 -8 5 -26 9 -40 9 l-25
-1 25 -8z"/>
<path d="M3910 2646 c0 -3 9 -10 20 -16 11 -6 20 -8 20 -6 0 3 -9 10 -20 16
-11 6 -20 8 -20 6z"/>
<path d="M908 2633 c7 -3 16 -2 19 1 4 3 -2 6 -13 5 -11 0 -14 -3 -6 -6z"/>
<path d="M1021 2624 c0 -11 3 -14 6 -6 3 7 2 16 -1 19 -3 4 -6 -2 -5 -13z"/>
<path d="M4008 2628 c5 -5 16 -8 23 -6 8 3 3 7 -10 11 -17 4 -21 3 -13 -5z"/>
<path d="M620 2626 c0 -2 7 -7 16 -10 8 -3 12 -2 9 4 -6 10 -25 14 -25 6z"/>
<path d="M2820 2620 c0 -5 5 -10 11 -10 5 0 7 5 4 10 -3 6 -8 10 -11 10 -2 0
-4 -4 -4 -10z"/>
<path d="M757 2611 c-17 -6 -18 -8 -3 -20 9 -8 19 -11 23 -7 3 3 0 6 -8 6 -10
1 -8 5 5 15 21 16 13 18 -17 6z"/>
<path d="M816 2605 c-25 -19 -9 -19 24 0 14 8 19 14 10 14 -8 0 -24 -6 -34
-14z"/>
<path d="M3450 2609 c0 -5 5 -7 10 -4 6 3 10 8 10 11 0 2 -4 4 -10 4 -5 0 -10
-5 -10 -11z"/>
<path d="M3510 2609 c0 -5 5 -7 10 -4 6 3 10 8 10 11 0 2 -4 4 -10 4 -5 0 -10
-5 -10 -11z"/>
<path d="M3668 2613 c7 -3 16 -2 19 1 4 3 -2 6 -13 5 -11 0 -14 -3 -6 -6z"/>
<path d="M1140 2600 c0 -5 5 -10 11 -10 5 0 7 5 4 10 -3 6 -8 10 -11 10 -2 0
-4 -4 -4 -10z"/>
<path d="M455 2590 c-16 -7 -17 -9 -3 -9 9 -1 20 4 23 9 7 11 7 11 -20 0z"/>
<path d="M1032 2580 c0 -14 2 -19 5 -12 2 6 2 18 0 25 -3 6 -5 1 -5 -13z"/>
<path d="M1541 2584 c0 -11 3 -14 6 -6 3 7 2 16 -1 19 -3 4 -6 -2 -5 -13z"/>
<path d="M2840 2592 c0 -12 22 -32 35 -32 5 0 1 6 -10 12 -19 11 -19 11 0 19
19 7 18 8 -2 8 -13 1 -23 -3 -23 -7z"/>
<path d="M3008 2571 c-4 -27 -2 -30 14 -25 18 5 22 -5 20 -51 0 -11 2 -14 4
-7 4 8 11 5 25 -10 24 -30 25 -14 1 20 -10 15 -22 34 -26 42 -4 8 -13 25 -20
38 l-14 23 -4 -30z"/>
<path d="M3728 2593 c6 -2 18 -2 25 0 6 3 1 5 -13 5 -14 0 -19 -2 -12 -5z"/>
<path d="M3505 2580 c-3 -5 -1 -10 4 -10 6 0 11 5 11 10 0 6 -2 10 -4 10 -3 0
-8 -4 -11 -10z"/>
<path d="M4106 2575 c4 -8 13 -15 21 -15 8 0 12 -3 10 -7 -3 -5 8 -8 24 -9 16
-1 28 0 27 1 -6 6 -79 45 -83 45 -2 0 -2 -7 1 -15z"/>
<path d="M730 2570 c-9 -6 -10 -10 -3 -10 6 0 15 5 18 10 8 12 4 12 -15 0z"/>
<path d="M372 2543 c-24 -15 -38 -29 -32 -31 6 -2 22 5 34 17 12 12 30 21 39
21 9 0 17 5 17 10 0 16 -13 12 -58 -17z"/>
<path d="M3825 2560 c3 -5 8 -10 11 -10 2 0 4 5 4 10 0 6 -5 10 -11 10 -5 0
-7 -4 -4 -10z"/>
<path d="M1130 2550 c0 -5 5 -10 11 -10 5 0 7 5 4 10 -3 6 -8 10 -11 10 -2 0
-4 -4 -4 -10z"/>
<path d="M1516 2552 c-3 -5 1 -9 9 -9 8 0 12 4 9 9 -3 4 -7 8 -9 8 -2 0 -6 -4
-9 -8z"/>
<path d="M654 2534 c-18 -14 -18 -15 4 -4 12 6 22 13 22 15 0 8 -5 6 -26 -11z"/>
<path d="M1200 2523 c30 -96 53 -149 58 -133 2 6 -1 17 -7 23 -6 6 -11 19 -11
28 0 9 -7 30 -15 45 -8 16 -15 37 -15 47 0 9 -4 17 -9 17 -6 0 -6 -11 -1 -27z"/>
<path d="M3487 2543 c-4 -3 -7 -13 -7 -22 1 -13 3 -13 11 2 11 19 8 33 -4 20z"/>
<path d="M1617 2533 c-4 -3 -7 -11 -7 -17 0 -6 5 -5 12 2 6 6 9 14 7 17 -3 3
-9 2 -12 -2z"/>
<path d="M2879 2525 c17 -33 31 -51 31 -40 0 6 -10 21 -21 35 -13 17 -17 18
-10 5z"/>
<path d="M555 2520 c-3 -6 1 -7 9 -4 18 7 21 14 7 14 -6 0 -13 -4 -16 -10z"/>
<path d="M596 2515 c-11 -8 -15 -15 -10 -15 6 0 19 7 30 15 10 8 15 14 9 14
-5 0 -19 -6 -29 -14z"/>
<path d="M1633 2498 c-25 -42 -34 -68 -25 -68 9 1 54 91 49 97 -3 2 -13 -11
-24 -29z"/>
<path d="M3975 2520 c3 -5 11 -10 16 -10 6 0 7 5 4 10 -3 6 -11 10 -16 10 -6
0 -7 -4 -4 -10z"/>
<path d="M4190 2520 c8 -5 22 -10 30 -10 13 0 13 1 0 10 -8 5 -22 10 -30 10
-13 0 -13 -1 0 -10z"/>
<path d="M1061 2504 c0 -11 3 -14 6 -6 3 7 2 16 -1 19 -3 4 -6 -2 -5 -13z"/>
<path d="M4020 2516 c0 -3 9 -10 20 -16 11 -6 20 -8 20 -6 0 3 -9 10 -20 16
-11 6 -20 8 -20 6z"/>
<path d="M4250 2493 c0 -9 40 -36 45 -31 2 2 -8 11 -21 21 -13 10 -24 14 -24
10z"/>
<path d="M276 2474 c-11 -8 -16 -14 -10 -14 13 0 39 18 34 24 -3 2 -14 -2 -24
-10z"/>
<path d="M1461 2455 c-13 -23 -16 -35 -8 -35 7 0 17 16 23 35 6 19 10 35 8 35
-1 0 -11 -16 -23 -35z"/>
<path d="M3461 2464 c0 -11 3 -14 6 -6 3 7 2 16 -1 19 -3 4 -6 -2 -5 -13z"/>
<path d="M4030 2472 c0 -5 11 -17 24 -25 20 -14 25 -14 30 -2 3 9 0 12 -8 9
-7 -3 -21 2 -30 11 -9 9 -16 12 -16 7z"/>
<path d="M4218 2473 c7 -3 16 -2 19 1 4 3 -2 6 -13 5 -11 0 -14 -3 -6 -6z"/>
<path d="M2925 2447 c10 -15 20 -25 23 -22 3 3 -5 16 -17 28 l-23 22 17 -28z"/>
<path d="M3090 2441 c0 -5 5 -13 10 -16 6 -3 10 -2 10 4 0 5 -4 13 -10 16 -5
3 -10 2 -10 -4z"/>
<path d="M207 2415 c-15 -14 -27 -29 -27 -32 0 -4 14 6 30 22 28 26 34 35 27
35 -1 0 -15 -11 -30 -25z"/>
<path d="M3341 2424 c0 -11 3 -14 6 -6 3 7 2 16 -1 19 -3 4 -6 -2 -5 -13z"/>
<path d="M4145 2430 c3 -5 8 -10 11 -10 2 0 4 5 4 10 0 6 -5 10 -11 10 -5 0
-7 -4 -4 -10z"/>
<path d="M4324 2421 c0 -11 4 -17 8 -15 5 3 15 -2 24 -11 9 -9 19 -13 22 -10
5 4 -44 55 -52 55 -1 0 -2 -9 -2 -19z"/>
<path d="M425 2420 c-3 -5 -2 -10 4 -10 5 0 13 5 16 10 3 6 2 10 -4 10 -5 0
-13 -4 -16 -10z"/>
<path d="M1533 2415 c-3 -9 -3 -18 -1 -21 3 -3 8 4 11 16 6 23 -1 27 -10 5z"/>
<path d="M3444 2416 c-3 -8 -4 -23 -2 -33 3 -11 6 -6 9 15 6 34 2 42 -7 18z"/>
<path d="M4090 2426 c0 -2 7 -7 16 -10 8 -3 12 -2 9 4 -6 10 -25 14 -25 6z"/>
<path d="M1560 2373 c-28 -63 -18 -66 13 -4 14 28 21 51 16 51 -4 0 -17 -21
-29 -47z"/>
<path d="M1426 2393 c-6 -14 -5 -15 5 -6 7 7 10 15 7 18 -3 3 -9 -2 -12 -12z"/>
<path d="M3110 2401 c0 -6 4 -11 9 -11 5 0 8 -17 6 -37 -3 -24 -1 -31 4 -19 7
17 8 17 23 -6 9 -13 17 -32 19 -43 2 -10 9 -20 16 -22 7 -3 -3 27 -23 66 -34
67 -54 94 -54 72z"/>
<path d="M4137 2399 c7 -7 15 -10 18 -7 3 3 -2 9 -12 12 -14 6 -15 5 -6 -5z"/>
<path d="M2981 2354 c0 -11 3 -14 6 -6 3 7 2 16 -1 19 -3 4 -6 -2 -5 -13z"/>
<path d="M330 2345 c-7 -8 -16 -12 -21 -10 -4 3 -15 -8 -24 -25 -15 -29 -24
-34 -55 -31 -11 1 -10 -2 3 -10 16 -9 26 -4 70 40 28 28 48 51 45 51 -3 0 -11
-7 -18 -15z"/>
<path d="M4400 2353 c0 -5 10 -19 23 -33 13 -14 26 -34 30 -44 4 -10 10 -16
14 -13 3 4 -7 25 -22 47 -29 42 -45 57 -45 43z"/>
<path d="M1268 2344 c-4 -3 0 -18 7 -32 8 -15 17 -36 20 -46 3 -10 7 -17 10
-15 5 5 -17 85 -26 93 -3 3 -8 3 -11 0z"/>
<path d="M1391 2332 c-17 -31 -13 -40 5 -14 9 13 14 26 11 29 -3 2 -10 -4 -16
-15z"/>
<path d="M2230 2330 c-9 -6 -10 -10 -3 -10 6 0 15 5 18 10 8 12 4 12 -15 0z"/>
<path d="M2270 2330 c0 -5 9 -10 21 -10 11 0 17 5 14 10 -3 6 -13 10 -21 10
-8 0 -14 -4 -14 -10z"/>
<path d="M2320 2333 c0 -12 23 -23 49 -23 10 0 36 -16 59 -36 23 -19 42 -32
42 -28 0 10 -49 54 -61 54 -5 0 -9 5 -9 10 0 6 -13 10 -28 10 -15 0 -33 5 -40
12 -8 8 -12 8 -12 1z"/>
<path d="M3411 2324 c0 -11 3 -14 6 -6 3 7 2 16 -1 19 -3 4 -6 -2 -5 -13z"/>
<path d="M2188 2313 c7 -3 16 -2 19 1 4 3 -2 6 -13 5 -11 0 -14 -3 -6 -6z"/>
<path d="M3256 2304 c-4 -9 -4 -19 -1 -22 2 -3 7 3 11 12 4 9 4 19 1 22 -2 3
-7 -3 -11 -12z"/>
<path d="M3392 2280 c-16 -26 -42 -103 -37 -109 3 -2 7 5 11 15 4 10 15 39 25
63 21 47 21 62 1 31z"/>
<path d="M4302 2286 c7 -8 15 -12 17 -11 5 6 -10 25 -20 25 -5 0 -4 -6 3 -14z"/>
<path d="M95 2280 c-3 -5 -1 -10 4 -10 6 0 11 5 11 10 0 6 -2 10 -4 10 -3 0
-8 -4 -11 -10z"/>
<path d="M1376 2281 c-4 -7 -5 -15 -2 -18 9 -9 19 4 14 18 -4 11 -6 11 -12 0z"/>
<path d="M1151 2270 c0 -8 6 -26 15 -40 l15 -25 -7 25 c-3 14 -10 32 -15 40
-7 13 -8 13 -8 0z"/>
<path d="M1500 2252 c-21 -42 -21 -42 -16 -42 6 0 37 62 33 67 -2 1 -10 -9
-17 -25z"/>
<path d="M2096 2264 c-5 -14 -4 -15 9 -4 17 14 19 20 6 20 -5 0 -12 -7 -15
-16z"/>
<path d="M2130 2265 c-8 -9 -8 -15 -2 -15 12 0 26 19 19 26 -2 2 -10 -2 -17
-11z"/>
<path d="M4293 2257 c12 -13 24 -22 26 -20 6 4 -30 43 -40 43 -5 0 2 -10 14
-23z"/>
<path d="M62 2236 c-17 -37 -15 -45 4 -18 8 12 14 27 12 33 -2 6 -9 -1 -16
-15z"/>
<path d="M2426 2237 c3 -10 9 -15 12 -12 3 3 0 11 -7 18 -10 9 -11 8 -5 -6z"/>
<path d="M2480 2244 c0 -4 11 -22 25 -40 14 -18 25 -40 25 -48 0 -9 5 -16 10
-16 13 0 13 6 -1 33 -15 27 -59 81 -59 71z"/>
<path d="M4480 2241 c0 -6 4 -13 10 -16 6 -3 7 1 4 9 -7 18 -14 21 -14 7z"/>
<path d="M2050 2221 c0 -5 -7 -17 -16 -25 -8 -9 -14 -21 -12 -28 2 -6 14 5 26
25 12 21 17 37 12 37 -6 0 -10 -4 -10 -9z"/>
<path d="M203 2208 c-12 -15 -24 -48 -18 -48 2 0 10 14 19 30 15 32 15 38 -1
18z"/>
<path d="M4496 2185 c3 -16 11 -34 16 -40 6 -6 7 1 2 20 -3 17 -11 35 -16 40
-6 6 -7 -1 -2 -20z"/>
<path d="M71 2184 c0 -11 3 -14 6 -6 3 7 2 16 -1 19 -3 4 -6 -2 -5 -13z"/>
<path d="M161 2184 c0 -11 3 -14 6 -6 3 7 2 16 -1 19 -3 4 -6 -2 -5 -13z"/>
<path d="M1460 2184 c0 -8 5 -12 10 -9 6 3 10 10 10 16 0 5 -4 9 -10 9 -5 0
-10 -7 -10 -16z"/>
<path d="M41 2183 c-1 -6 -4 -20 -7 -30 -5 -17 -5 -17 6 0 6 10 9 23 6 30 -3
9 -5 9 -5 0z"/>
<path d="M2486 2173 c-9 -23 10 -41 27 -24 10 10 8 11 -7 5 -15 -6 -17 -4 -11
14 8 26 0 30 -9 5z"/>
<path d="M4360 2155 c0 -5 5 -17 10 -25 5 -8 10 -10 10 -5 0 6 -5 17 -10 25
-5 8 -10 11 -10 5z"/>
<path d="M3321 2113 c-10 -26 -10 -27 4 -9 8 11 15 23 15 28 0 15 -7 8 -19
-19z"/>
<path d="M23 2040 c0 -47 2 -66 4 -42 2 23 2 61 0 85 -2 23 -4 4 -4 -43z"/>
<path d="M162 2100 c0 -14 2 -19 5 -12 2 6 2 18 0 25 -3 6 -5 1 -5 -13z"/>
<path d="M1991 2104 c0 -11 3 -14 6 -6 3 7 2 16 -1 19 -3 4 -6 -2 -5 -13z"/>
<path d="M1410 2074 c-9 -27 -9 -42 0 -65 7 -16 16 -29 21 -29 4 0 1 16 -7 36
-13 32 -13 38 0 60 18 27 20 34 7 34 -5 0 -15 -16 -21 -36z"/>
<path d="M4382 2090 c0 -14 2 -19 5 -12 2 6 2 18 0 25 -3 6 -5 1 -5 -13z"/>
<path d="M2552 2085 c0 -11 4 -33 8 -50 l8 -30 0 30 c0 17 -3 39 -8 50 l-9 20
1 -20z"/>
<path d="M3293 2066 c4 -10 7 -29 7 -42 0 -13 4 -24 8 -24 12 0 2 69 -11 77
-7 4 -8 0 -4 -11z"/>
<path d="M53 2020 c0 -30 2 -43 4 -27 2 15 2 39 0 55 -2 15 -4 2 -4 -28z"/>
<path d="M3131 2004 c0 -11 3 -14 6 -6 3 7 2 16 -1 19 -3 4 -6 -2 -5 -13z"/>
<path d="M3181 1994 c0 -11 3 -14 6 -6 3 7 2 16 -1 19 -3 4 -6 -2 -5 -13z"/>
<path d="M161 1984 c0 -11 3 -14 6 -6 3 7 2 16 -1 19 -3 4 -6 -2 -5 -13z"/>
<path d="M3332 1960 c5 -17 14 -33 19 -36 12 -7 11 -2 -7 34 -20 40 -26 41
-12 2z"/>
<path d="M1998 1955 c5 -26 32 -57 32 -36 0 6 -4 11 -10 11 -5 0 -10 9 -10 19
0 11 -4 22 -9 25 -4 3 -6 -6 -3 -19z"/>
<path d="M2532 1951 c-7 -19 -10 -36 -8 -38 8 -8 27 38 24 55 -3 11 -8 5 -16
-17z"/>
<path d="M4381 1964 c0 -11 3 -14 6 -6 3 7 2 16 -1 19 -3 4 -6 -2 -5 -13z"/>
<path d="M1444 1935 c0 -21 3 -30 8 -22 10 16 10 44 0 51 -4 2 -8 -11 -8 -29z"/>
<path d="M170 1950 c0 -5 5 -10 11 -10 5 0 7 5 4 10 -3 6 -8 10 -11 10 -2 0
-4 -4 -4 -10z"/>
<path d="M1217 1953 c-4 -3 -7 -11 -7 -17 0 -6 5 -5 12 2 6 6 9 14 7 17 -3 3
-9 2 -12 -2z"/>
<path d="M4496 1909 c-9 -28 -16 -53 -14 -55 2 -2 12 19 22 47 10 27 17 52 14
54 -2 2 -12 -19 -22 -46z"/>
<path d="M3095 1940 c-3 -5 1 -10 10 -10 9 0 13 5 10 10 -3 6 -8 10 -10 10 -2
0 -7 -4 -10 -10z"/>
<path d="M4481 1934 c0 -11 3 -14 6 -6 3 7 2 16 -1 19 -3 4 -6 -2 -5 -13z"/>
<path d="M191 1914 c0 -11 3 -14 6 -6 3 7 2 16 -1 19 -3 4 -6 -2 -5 -13z"/>
<path d="M3075 1910 c-3 -5 -1 -10 4 -10 6 0 11 5 11 10 0 6 -2 10 -4 10 -3 0
-8 -4 -11 -10z"/>
<path d="M1487 1867 c9 -26 21 -47 25 -47 8 0 -19 70 -33 85 -6 5 -2 -12 8
-38z"/>
<path d="M4315 1858 c-38 -52 -38 -52 -8 -28 18 14 36 37 42 53 5 15 9 27 8
27 -2 0 -20 -24 -42 -52z"/>
<path d="M211 1884 c0 -11 3 -14 6 -6 3 7 2 16 -1 19 -3 4 -6 -2 -5 -13z"/>
<path d="M2473 1886 c-4 -5 -1 -6 7 -1 9 6 10 2 5 -15 -8 -26 9 -20 24 8 7 14
5 18 -11 18 -10 0 -22 -5 -25 -10z"/>
<path d="M3240 1891 c0 -6 4 -13 10 -16 6 -3 7 1 4 9 -7 18 -14 21 -14 7z"/>
<path d="M2047 1865 c10 -13 22 -25 26 -25 4 0 0 11 -10 25 -10 13 -22 25 -26
25 -4 0 0 -11 10 -25z"/>
<path d="M1175 1869 c-4 -6 -5 -12 -2 -15 2 -3 7 2 10 11 7 17 1 20 -8 4z"/>
<path d="M3056 1864 c-4 -9 -4 -19 -1 -22 2 -3 7 3 11 12 4 9 4 19 1 22 -2 3
-7 -3 -11 -12z"/>
<path d="M3370 1870 c0 -5 9 -29 19 -53 11 -23 22 -49 25 -57 3 -8 3 3 0 25
-3 22 -10 42 -15 43 -5 2 -9 12 -9 22 0 10 -4 22 -10 25 -5 3 -10 1 -10 -5z"/>
<path d="M1305 1850 c-4 -12 -5 -24 -2 -27 3 -2 8 5 12 17 4 12 5 24 2 27 -3
2 -8 -5 -12 -17z"/>
<path d="M235 1840 c10 -11 22 -20 26 -20 5 0 1 9 -8 20 -10 11 -22 20 -27 20
-5 0 -1 -9 9 -20z"/>
<path d="M1281 1844 c0 -11 3 -14 6 -6 3 7 2 16 -1 19 -3 4 -6 -2 -5 -13z"/>
<path d="M2444 1836 c-3 -8 -11 -14 -17 -12 -7 1 -9 1 -4 -1 4 -3 4 -9 1 -15
-4 -6 1 -6 14 1 22 12 37 41 21 41 -5 0 -12 -6 -15 -14z"/>
<path d="M1350 1831 c0 -6 4 -13 10 -16 6 -3 7 1 4 9 -7 18 -14 21 -14 7z"/>
<path d="M1470 1830 c0 -5 5 -10 11 -10 5 0 7 5 4 10 -3 6 -8 10 -11 10 -2 0
-4 -4 -4 -10z"/>
<path d="M2116 1806 c10 -8 21 -12 24 -10 5 6 -21 24 -34 24 -6 0 -1 -6 10
-14z"/>
<path d="M3120 1815 c0 -5 4 -15 8 -22 6 -9 11 -7 20 7 7 12 8 20 2 20 -5 0
-10 -6 -10 -12 0 -9 -4 -8 -10 2 -5 8 -10 11 -10 5z"/>
<path d="M3155 1780 c-25 -56 -14 -60 13 -5 12 25 18 45 13 45 -4 0 -16 -18
-26 -40z"/>
<path d="M4433 1793 c-18 -26 -40 -74 -29 -62 15 15 56 82 53 86 -3 2 -14 -8
-24 -24z"/>
<path d="M280 1785 c13 -14 26 -23 28 -20 7 7 -29 45 -41 45 -6 0 0 -11 13
-25z"/>
<path d="M1285 1800 c3 -5 8 -10 11 -10 2 0 4 5 4 10 0 6 -5 10 -11 10 -5 0
-7 -4 -4 -10z"/>
<path d="M116 1772 c10 -18 28 -41 38 -50 12 -10 8 0 -9 23 -40 56 -51 66 -29
27z"/>
<path d="M1145 1789 c-4 -6 -5 -12 -2 -15 2 -3 7 2 10 11 7 17 1 20 -8 4z"/>
<path d="M1406 1787 c3 -10 9 -15 12 -12 3 3 0 11 -7 18 -10 9 -11 8 -5 -6z"/>
<path d="M3256 1787 c3 -10 9 -15 12 -12 3 3 0 11 -7 18 -10 9 -11 8 -5 -6z"/>
<path d="M4260 1789 c0 -5 5 -7 10 -4 6 3 10 8 10 11 0 2 -4 4 -10 4 -5 0 -10
-5 -10 -11z"/>
<path d="M1536 1779 c3 -6 1 -15 -6 -19 -7 -4 -8 -10 -3 -13 5 -3 15 -2 22 3
15 9 8 40 -9 40 -6 0 -8 -5 -4 -11z"/>
<path d="M4290 1784 c0 -3 7 -12 15 -20 16 -17 18 -14 9 10 -6 15 -24 23 -24
10z"/>
<path d="M245 1770 c3 -5 11 -10 16 -10 6 0 7 5 4 10 -3 6 -11 10 -16 10 -6 0
-7 -4 -4 -10z"/>
<path d="M1175 1770 c-3 -6 1 -7 9 -4 18 7 21 14 7 14 -6 0 -13 -4 -16 -10z"/>
<path d="M2223 1763 c9 -2 23 -2 30 0 6 3 -1 5 -18 5 -16 0 -22 -2 -12 -5z"/>
<path d="M2288 1763 c7 -3 16 -2 19 1 4 3 -2 6 -13 5 -11 0 -14 -3 -6 -6z"/>
<path d="M2990 1743 c-8 -16 -16 -32 -19 -37 -2 -5 1 -6 7 -2 7 4 12 12 12 18
0 6 7 20 17 30 9 10 12 18 6 18 -5 0 -16 -12 -23 -27z"/>
<path d="M4224 1754 c-18 -14 -18 -15 4 -4 12 6 22 13 22 15 0 8 -5 6 -26 -11z"/>
<path d="M316 1752 c-3 -4 4 -9 15 -9 23 -2 25 3 4 10 -8 4 -16 3 -19 -1z"/>
<path d="M1560 1724 c0 -12 7 -27 15 -34 23 -19 25 -9 4 25 -17 26 -19 27 -19
9z"/>
<path d="M4365 1713 c-10 -16 -27 -36 -39 -45 -11 -10 -16 -18 -10 -18 14 0
74 66 74 80 0 16 -7 11 -25 -17z"/>
<path d="M360 1722 c0 -12 19 -26 26 -19 2 2 -2 10 -11 17 -9 8 -15 8 -15 2z"/>
<path d="M1252 1710 c0 -14 2 -19 5 -12 2 6 2 18 0 25 -3 6 -5 1 -5 -13z"/>
<path d="M4167 1710 c-14 -11 -30 -20 -35 -20 -5 0 -15 -7 -22 -15 -25 -30 6
-15 89 42 2 2 2 5 -1 8 -3 3 -16 -4 -31 -15z"/>
<path d="M1106 1705 c-9 -26 -7 -32 5 -12 6 10 9 21 6 23 -2 3 -7 -2 -11 -11z"/>
<path d="M1420 1708 c0 -9 5 -20 10 -23 13 -8 13 5 0 25 -8 13 -10 13 -10 -2z"/>
<path d="M3442 1700 c0 -14 2 -19 5 -12 2 6 2 18 0 25 -3 6 -5 1 -5 -13z"/>
<path d="M210 1700 c0 -5 5 -10 10 -10 6 0 10 5 10 10 0 6 -4 10 -10 10 -5 0
-10 -4 -10 -10z"/>
<path d="M420 1680 c14 -11 29 -20 33 -20 13 0 -16 25 -38 33 -16 6 -15 3 5
-13z"/>
<path d="M3300 1684 c0 -10 5 -26 10 -34 8 -11 9 -7 4 15 -8 37 -14 45 -14 19z"/>
<path d="M3346 1665 c-9 -26 -7 -32 5 -12 6 10 9 21 6 23 -2 3 -7 -2 -11 -11z"/>
<path d="M1608 1655 c38 -95 66 -135 80 -120 4 4 1 10 -5 12 -7 3 -21 23 -32
46 -10 23 -26 51 -35 62 l-16 20 8 -20z"/>
<path d="M3076 1662 c-3 -5 1 -9 9 -9 8 0 12 4 9 9 -3 4 -7 8 -9 8 -2 0 -6 -4
-9 -8z"/>
<path d="M3456 1657 c3 -10 9 -15 12 -12 3 3 0 11 -7 18 -10 9 -11 8 -5 -6z"/>
<path d="M1218 1629 c-10 -17 -18 -38 -18 -47 0 -9 9 1 21 22 24 46 21 69 -3
25z"/>
<path d="M1453 1635 c7 -14 16 -25 20 -25 9 0 -9 36 -22 44 -5 4 -4 -5 2 -19z"/>
<path d="M499 1631 c13 -12 31 -21 40 -21 14 0 6 6 -51 35 -7 4 -2 -3 11 -14z"/>
<path d="M4012 1619 c-63 -30 -77 -44 -34 -32 12 3 22 9 22 14 0 5 7 6 14 3 8
-3 28 6 43 20 34 32 33 32 -45 -5z"/>
<path d="M1081 1624 c0 -11 3 -14 6 -6 3 7 2 16 -1 19 -3 4 -6 -2 -5 -13z"/>
<path d="M3076 1623 c-6 -15 -8 -15 -16 -3 -8 13 -10 12 -10 -2 0 -26 18 -31
30 -7 7 11 10 23 7 25 -2 3 -8 -3 -11 -13z"/>
<path d="M4260 1620 c-14 -11 -20 -20 -15 -20 6 0 21 9 35 20 14 11 21 20 15
20 -5 0 -21 -9 -35 -20z"/>
<path d="M270 1615 c7 -8 20 -15 28 -15 13 0 12 3 -4 15 -25 19 -40 19 -24 0z"/>
<path d="M2941 1614 c0 -11 3 -14 6 -6 3 7 2 16 -1 19 -3 4 -6 -2 -5 -13z"/>
<path d="M3320 1623 c0 -4 5 -15 10 -23 8 -13 10 -13 10 2 0 9 -4 20 -10 23
-5 3 -10 3 -10 -2z"/>
<path d="M1600 1615 c0 -5 5 -17 10 -25 5 -8 10 -10 10 -5 0 6 -5 17 -10 25
-5 8 -10 11 -10 5z"/>
<path d="M3471 1615 c0 -5 7 -26 14 -45 9 -23 14 -28 14 -15 0 11 -6 31 -14
45 -8 14 -14 21 -14 15z"/>
<path d="M498 1593 c7 -3 16 -2 19 1 4 3 -2 6 -13 5 -11 0 -14 -3 -6 -6z"/>
<path d="M605 1576 c28 -13 61 -27 75 -30 14 -3 -2 7 -35 24 -33 16 -67 29
-75 29 -8 0 8 -10 35 -23z"/>
<path d="M1480 1592 c0 -5 7 -15 15 -22 8 -7 15 -9 15 -6 0 4 -7 14 -15 22 -8
9 -15 11 -15 6z"/>
<path d="M3446 1583 c-6 -14 -5 -15 5 -6 7 7 10 15 7 18 -3 3 -9 -2 -12 -12z"/>
<path d="M324 1576 c11 -9 24 -16 30 -16 12 0 7 5 -24 19 -24 11 -24 11 -6 -3z"/>
<path d="M1062 1570 c0 -14 2 -19 5 -12 2 6 2 18 0 25 -3 6 -5 1 -5 -13z"/>
<path d="M1095 1579 c-4 -6 -5 -12 -2 -15 2 -3 7 2 10 11 7 17 1 20 -8 4z"/>
<path d="M3895 1560 c-3 -5 -2 -10 4 -10 5 0 13 5 16 10 3 6 2 10 -4 10 -5 0
-13 -4 -16 -10z"/>
<path d="M4180 1559 c0 -5 5 -7 10 -4 6 3 10 8 10 11 0 2 -4 4 -10 4 -5 0 -10
-5 -10 -11z"/>
<path d="M3020 1533 c-8 -16 -16 -32 -19 -37 -2 -5 1 -6 7 -2 7 4 12 12 12 18
0 6 7 20 17 30 9 10 12 18 6 18 -5 0 -16 -12 -23 -27z"/>
<path d="M380 1540 c0 -5 5 -10 11 -10 5 0 7 5 4 10 -3 6 -8 10 -11 10 -2 0
-4 -4 -4 -10z"/>
<path d="M3860 1539 c0 -5 5 -7 10 -4 6 3 10 8 10 11 0 2 -4 4 -10 4 -5 0 -10
-5 -10 -11z"/>
<path d="M640 1521 c0 -4 11 -6 25 -3 14 2 25 6 25 8 0 2 -11 4 -25 4 -14 0
-25 -4 -25 -9z"/>
<path d="M711 1521 c-9 -6 -10 -11 -2 -15 6 -4 11 -2 11 4 0 7 9 9 23 5 17 -5
19 -4 7 4 -18 13 -21 13 -39 2z"/>
<path d="M2857 1517 c-3 -8 -2 -20 3 -26 5 -9 8 -4 8 13 0 29 -3 32 -11 13z"/>
<path d="M3500 1516 c0 -9 5 -16 10 -16 6 0 10 4 10 9 0 6 -4 13 -10 16 -5 3
-10 -1 -10 -9z"/>
<path d="M3828 1523 c6 -2 10 -9 7 -14 -4 -5 1 -6 10 -2 13 5 14 7 3 14 -7 5
-17 8 -23 8 -5 0 -4 -3 3 -6z"/>
<path d="M3760 1508 c-19 -6 -30 -12 -24 -15 7 -2 27 3 45 11 39 17 29 19 -21
4z"/>
<path d="M440 1503 c8 -3 22 -11 30 -17 13 -10 13 -9 1 7 -7 9 -21 17 -30 16
-13 0 -14 -1 -1 -6z"/>
<path d="M668 1503 c7 -3 16 -2 19 1 4 3 -2 6 -13 5 -11 0 -14 -3 -6 -6z"/>
<path d="M815 1490 c28 -11 55 -18 60 -16 6 2 1 7 -10 11 -11 3 -28 11 -37 16
-10 5 -28 9 -40 9 -15 -1 -6 -8 27 -20z"/>
<path d="M1700 1507 c0 -15 29 -63 46 -78 15 -11 14 -9 -2 16 -12 17 -26 39
-32 50 -6 11 -12 16 -12 12z"/>
<path d="M4085 1500 c-3 -6 1 -7 9 -4 18 7 21 14 7 14 -6 0 -13 -4 -16 -10z"/>
<path d="M528 1493 c7 -3 16 -2 19 1 4 3 -2 6 -13 5 -11 0 -14 -3 -6 -6z"/>
<path d="M1157 1468 c8 -42 10 -44 15 -15 2 13 -1 29 -9 35 -10 10 -11 6 -6
-20z"/>
<path d="M1566 1452 c16 -28 30 -49 32 -47 5 5 -36 83 -49 91 -7 4 1 -16 17
-44z"/>
<path d="M4035 1480 c-3 -5 -2 -10 4 -10 5 0 13 5 16 10 3 6 2 10 -4 10 -5 0
-13 -4 -16 -10z"/>
<path d="M500 1476 c0 -7 61 -36 75 -36 7 0 18 -7 25 -15 7 -8 17 -15 23 -15
17 0 -23 28 -72 50 -46 21 -51 23 -51 16z"/>
<path d="M2972 1455 c-6 -14 -10 -25 -8 -25 2 0 11 11 20 25 9 14 13 25 8 25
-5 0 -14 -11 -20 -25z"/>
<path d="M3521 1464 c0 -11 3 -14 6 -6 3 7 2 16 -1 19 -3 4 -6 -2 -5 -13z"/>
<path d="M3678 1473 c7 -3 16 -2 19 1 4 3 -2 6 -13 5 -11 0 -14 -3 -6 -6z"/>
<path d="M3975 1473 c11 -3 24 -10 28 -17 6 -7 7 -6 4 4 -2 8 -14 16 -28 17
-19 1 -20 1 -4 -4z"/>
<path d="M1021 1454 c0 -11 3 -14 6 -6 3 7 2 16 -1 19 -3 4 -6 -2 -5 -13z"/>
<path d="M3381 1454 c0 -11 3 -14 6 -6 3 7 2 16 -1 19 -3 4 -6 -2 -5 -13z"/>
<path d="M838 1453 c6 -2 18 -2 25 0 6 3 1 5 -13 5 -14 0 -19 -2 -12 -5z"/>
<path d="M928 1453 c17 -2 32 -8 32 -12 0 -5 10 -11 23 -14 l22 -6 -24 20
c-13 11 -36 18 -55 17 l-31 -1 33 -4z"/>
<path d="M3583 1448 c-13 -6 -23 -15 -23 -21 0 -5 5 -5 13 1 7 6 24 16 38 21
13 5 17 10 9 10 -8 0 -25 -5 -37 -11z"/>
<path d="M3673 1435 c0 -7 6 -11 14 -8 7 3 13 6 13 8 0 2 -6 5 -13 8 -8 3 -14
-1 -14 -8z"/>
<path d="M3950 1440 c0 -5 7 -7 15 -4 8 4 15 8 15 10 0 2 -7 4 -15 4 -8 0 -15
-4 -15 -10z"/>
<path d="M1140 1412 c0 -5 7 -15 15 -22 8 -7 15 -8 15 -2 0 5 -7 15 -15 22 -8
7 -15 8 -15 2z"/>
<path d="M2900 1405 c-7 -9 -10 -18 -7 -21 3 -3 10 4 17 15 13 25 8 27 -10 6z"/>
<path d="M3869 1403 c-13 -15 -12 -15 9 -4 23 12 28 21 13 21 -5 0 -15 -7 -22
-17z"/>
<path d="M665 1400 c3 -5 14 -10 23 -10 15 0 15 2 2 10 -20 13 -33 13 -25 0z"/>
<path d="M778 1403 c7 -3 16 -2 19 1 4 3 -2 6 -13 5 -11 0 -14 -3 -6 -6z"/>
<path d="M1777 1380 c9 -19 16 -42 15 -50 -2 -13 -1 -13 7 -1 10 16 4 31 -24
66 -13 17 -13 14 2 -15z"/>
<path d="M2771 1389 c-7 -12 -10 -23 -8 -26 3 -3 11 5 17 17 15 28 8 35 -9 9z"/>
<path d="M2933 1398 c-19 -25 -24 -38 -15 -38 5 0 17 11 26 25 17 25 7 36 -11
13z"/>
<path d="M3377 1393 c-4 -3 -7 -11 -7 -17 0 -6 5 -5 12 2 6 6 9 14 7 17 -3 3
-9 2 -12 -2z"/>
<path d="M710 1380 c0 -6 7 -10 15 -10 8 0 15 2 15 4 0 2 -7 6 -15 10 -8 3
-15 1 -15 -4z"/>
<path d="M1183 1385 c8 -10 19 -12 92 -19 46 -5 47 -4 10 3 -22 5 -56 12 -75
16 -19 4 -32 4 -27 0z"/>
<path d="M3800 1380 c0 -12 8 -12 35 0 18 8 17 9 -7 9 -16 1 -28 -3 -28 -9z"/>
<path d="M3243 1363 c9 -2 23 -2 30 0 6 3 -1 5 -18 5 -16 0 -22 -2 -12 -5z"/>
<path d="M1370 1350 c8 -5 26 -10 39 -10 32 0 24 6 -19 14 -25 4 -31 3 -20 -4z"/>
<path d="M2740 1334 c0 -9 -8 -23 -17 -30 -17 -13 -17 -14 0 -8 26 9 48 54 27
54 -5 0 -10 -7 -10 -16z"/>
<path d="M3143 1343 c9 -2 23 -2 30 0 6 3 -1 5 -18 5 -16 0 -22 -2 -12 -5z"/>
<path d="M3541 1324 c0 -11 3 -14 6 -6 3 7 2 16 -1 19 -3 4 -6 -2 -5 -13z"/>
<path d="M3608 1333 c7 -3 16 -2 19 1 4 3 -2 6 -13 5 -11 0 -14 -3 -6 -6z"/>
<path d="M900 1324 c0 -7 52 -25 57 -20 2 2 -10 8 -26 14 -17 6 -31 9 -31 6z"/>
<path d="M1560 1321 c0 -6 9 -11 20 -11 11 0 19 -5 18 -11 -2 -6 3 -13 10 -14
7 -2 8 -1 3 1 -6 3 -7 12 -4 20 3 8 1 14 -5 14 -6 0 -17 3 -26 6 -9 3 -16 1
-16 -5z"/>
<path d="M1772 1310 c0 -14 2 -19 5 -12 2 6 2 18 0 25 -3 6 -5 1 -5 -13z"/>
<path d="M3615 1321 c-16 -3 -25 -9 -20 -13 6 -3 24 0 40 7 33 15 27 16 -20 6z"/>
<path d="M1820 1313 c0 -5 7 -16 14 -26 11 -14 15 -15 19 -4 3 7 -4 19 -14 25
-10 7 -19 9 -19 5z"/>
<path d="M2978 1313 c7 -3 16 -2 19 1 4 3 -2 6 -13 5 -11 0 -14 -3 -6 -6z"/>
<path d="M1528 1293 c6 -2 18 -2 25 0 6 3 1 5 -13 5 -14 0 -19 -2 -12 -5z"/>
<path d="M3008 1293 c7 -3 16 -2 19 1 4 3 -2 6 -13 5 -11 0 -14 -3 -6 -6z"/>
<path d="M2000 1277 c0 -5 22 -7 50 -5 27 3 51 2 52 -1 2 -3 95 -4 208 -1 113
3 203 7 200 9 -14 8 -510 5 -510 -2z"/>
<path d="M2525 1279 c-4 -6 -4 -13 0 -17 4 -4 10 -2 12 5 3 8 17 10 36 8 29
-4 29 -4 7 4 -35 13 -48 13 -55 0z"/>
<path d="M2628 1283 c6 -2 18 -2 25 0 6 3 1 5 -13 5 -14 0 -19 -2 -12 -5z"/>
<path d="M3526 1263 c-6 -14 -5 -15 5 -6 7 7 10 15 7 18 -3 3 -9 -2 -12 -12z"/>
<path d="M3571 1259 c-1 -15 7 -33 16 -40 13 -11 15 -11 9 -1 -5 8 -12 26 -16
40 l-8 27 -1 -26z"/>
<path d="M1156 1250 c6 -6 30 -12 54 -14 25 -2 36 -2 25 1 -11 2 -35 8 -54 13
-22 6 -31 6 -25 0z"/>
<path d="M3370 1250 c-9 -6 -10 -10 -3 -10 6 0 15 5 18 10 8 12 4 12 -15 0z"/>
<path d="M1350 1240 c8 -5 20 -10 25 -10 6 0 3 5 -5 10 -8 5 -19 10 -25 10 -5
0 -3 -5 5 -10z"/>
<path d="M3203 1243 c9 -2 25 -2 35 0 9 3 1 5 -18 5 -19 0 -27 -2 -17 -5z"/>
<path d="M1088 1195 c-3 -14 -1 -25 3 -25 5 0 9 11 9 25 0 14 -2 25 -4 25 -2
0 -6 -11 -8 -25z"/>
<path d="M1338 1213 c7 -3 16 -2 19 1 4 3 -2 6 -13 5 -11 0 -14 -3 -6 -6z"/>
<path d="M3188 1213 c6 -2 18 -2 25 0 6 3 1 5 -13 5 -14 0 -19 -2 -12 -5z"/>
<path d="M1568 1173 c6 -2 18 -2 25 0 6 3 1 5 -13 5 -14 0 -19 -2 -12 -5z"/>
<path d="M1955 1169 c-11 -16 -1 -19 13 -3 7 8 8 14 3 14 -5 0 -13 -5 -16 -11z"/>
<path d="M3601 1154 c1 -16 5 -40 9 -54 6 -17 7 -9 3 25 -6 56 -14 74 -12 29z"/>
<path d="M2413 1163 c9 -2 23 -2 30 0 6 3 -1 5 -18 5 -16 0 -22 -2 -12 -5z"/>
<path d="M2763 1148 c-11 -13 -23 -32 -27 -43 -4 -12 4 -7 23 15 27 31 37 50
28 50 -2 0 -13 -10 -24 -22z"/>
<path d="M2838 1163 c7 -3 16 -2 19 1 4 3 -2 6 -13 5 -11 0 -14 -3 -6 -6z"/>
<path d="M941 1144 c0 -11 3 -14 6 -6 3 7 2 16 -1 19 -3 4 -6 -2 -5 -13z"/>
<path d="M1064 1097 c-6 -32 -7 -57 -3 -57 9 0 23 83 17 101 -2 7 -9 -13 -14
-44z"/>
<path d="M1810 1146 c0 -4 7 -14 15 -22 8 -9 15 -11 15 -6 0 5 -7 15 -15 22
-8 7 -15 9 -15 6z"/>
<path d="M1800 1102 c0 -5 10 -17 22 -28 l21 -19 -18 28 c-18 28 -25 33 -25
19z"/>
<path d="M3472 1090 c0 -14 2 -19 5 -12 2 6 2 18 0 25 -3 6 -5 1 -5 -13z"/>
<path d="M2650 1090 c-8 -5 -12 -12 -9 -15 4 -3 12 1 19 10 14 17 11 19 -10 5z"/>
<path d="M2000 1073 c0 -6 8 -17 18 -24 16 -13 16 -13 2 6 -8 11 -16 22 -17
24 -2 2 -3 0 -3 -6z"/>
<path d="M1860 1059 c0 -5 5 -7 10 -4 6 3 10 8 10 11 0 2 -4 4 -10 4 -5 0 -10
-5 -10 -11z"/>
<path d="M2665 1060 c-3 -5 -1 -10 4 -10 6 0 11 5 11 10 0 6 -2 10 -4 10 -3 0
-8 -4 -11 -10z"/>
<path d="M2480 984 c-34 -42 -59 -78 -57 -80 3 -3 15 9 27 26 12 16 26 27 32
24 6 -4 8 -2 4 4 -3 6 10 28 29 49 32 34 42 53 31 53 -3 0 -32 -34 -66 -76z"/>
<path d="M2697 1053 c-4 -3 -7 -11 -7 -17 0 -6 5 -5 12 2 6 6 9 14 7 17 -3 3
-9 2 -12 -2z"/>
<path d="M3617 1040 c3 -11 9 -20 14 -20 11 0 11 3 3 24 -9 23 -23 20 -17 -4z"/>
<path d="M3481 1035 c0 -11 4 -27 9 -35 9 -13 10 -13 9 0 0 8 -4 24 -9 35 l-9
20 0 -20z"/>
<path d="M922 1020 c0 -14 2 -19 5 -12 2 6 2 18 0 25 -3 6 -5 1 -5 -13z"/>
<path d="M3501 1035 c1 -19 18 -51 18 -35 0 8 -4 22 -9 30 -5 8 -9 11 -9 5z"/>
<path d="M2039 1008 c4 -12 13 -24 20 -26 9 -3 9 2 0 22 -15 32 -32 35 -20 4z"/>
<path d="M2664 1021 c3 -5 -1 -14 -9 -21 -8 -7 -15 -20 -15 -28 0 -12 5 -9 17
8 9 14 21 28 26 31 5 3 1 9 -8 12 -9 4 -14 3 -11 -2z"/>
<path d="M1047 999 c-3 -12 -2 -31 3 -42 7 -18 9 -14 9 21 1 46 -4 54 -12 21z"/>
<path d="M1860 1016 c0 -2 7 -9 15 -16 13 -11 14 -10 9 4 -5 14 -24 23 -24 12z"/>
<path d="M1906 1007 c3 -10 9 -15 12 -12 3 3 0 11 -7 18 -10 9 -11 8 -5 -6z"/>
<path d="M2516 974 c-4 -9 -4 -19 -1 -22 2 -3 7 3 11 12 4 9 4 19 1 22 -2 3
-7 -3 -11 -12z"/>
<path d="M3617 949 c3 -24 7 -46 9 -48 9 -10 3 65 -5 78 -6 10 -8 -1 -4 -30z"/>
<path d="M1906 967 c3 -10 9 -15 12 -12 3 3 0 11 -7 18 -10 9 -11 8 -5 -6z"/>
<path d="M2020 971 c0 -5 5 -13 10 -16 6 -3 10 -2 10 4 0 5 -4 13 -10 16 -5 3
-10 2 -10 -4z"/>
<path d="M3642 955 c0 -16 2 -22 5 -12 2 9 2 23 0 30 -3 6 -5 -1 -5 -18z"/>
<path d="M2078 962 c6 -5 23 -23 37 -42 14 -19 25 -28 25 -22 0 16 -50 72 -64
72 -7 0 -6 -4 2 -8z"/>
<path d="M1040 915 c0 -8 2 -15 4 -15 2 0 6 7 10 15 3 8 1 15 -4 15 -6 0 -10
-7 -10 -15z"/>
<path d="M3601 914 c0 -11 3 -14 6 -6 3 7 2 16 -1 19 -3 4 -6 -2 -5 -13z"/>
<path d="M2092 898 c8 -12 21 -24 28 -26 8 -3 6 5 -6 21 -23 32 -42 36 -22 5z"/>
<path d="M3641 873 c0 -21 4 -47 9 -58 6 -14 8 -2 7 38 0 31 -4 57 -9 57 -4 0
-8 -17 -7 -37z"/>
<path d="M901 874 c0 -11 3 -14 6 -6 3 7 2 16 -1 19 -3 4 -6 -2 -5 -13z"/>
<path d="M2161 873 c7 -12 15 -20 18 -17 3 2 -3 12 -13 22 -17 16 -18 16 -5
-5z"/>
<path d="M2390 883 c0 -6 -26 -38 -58 -72 -32 -33 -54 -61 -49 -61 19 0 123
127 113 137 -3 4 -6 2 -6 -4z"/>
<path d="M2532 843 c-34 -33 -62 -74 -62 -88 1 -5 6 0 13 12 7 13 30 41 51 63
42 45 41 55 -2 13z"/>
<path d="M1990 858 c0 -10 49 -62 54 -57 3 3 -8 18 -24 34 -17 16 -30 26 -30
23z"/>
<path d="M2030 856 c0 -3 12 -17 26 -32 17 -16 24 -19 20 -9 -3 9 -6 18 -6 20
0 3 -9 9 -20 15 -11 6 -20 8 -20 6z"/>
<path d="M3621 844 c0 -11 3 -14 6 -6 3 7 2 16 -1 19 -3 4 -6 -2 -5 -13z"/>
<path d="M892 820 c0 -14 2 -19 5 -12 2 6 2 18 0 25 -3 6 -5 1 -5 -13z"/>
<path d="M932 805 c0 -16 2 -22 5 -12 2 9 2 23 0 30 -3 6 -5 -1 -5 -18z"/>
<path d="M2200 824 c0 -6 14 -23 30 -39 17 -16 30 -24 30 -19 0 6 -13 23 -30
39 -16 16 -30 24 -30 19z"/>
<path d="M2370 801 c0 -5 -8 -12 -17 -14 -15 -4 -15 -5 -2 -6 9 0 22 6 29 14
9 10 9 15 1 15 -6 0 -11 -4 -11 -9z"/>
<path d="M2410 760 c0 -5 5 -10 10 -10 6 0 10 5 10 10 0 6 -4 10 -10 10 -5 0
-10 -4 -10 -10z"/>
<path d="M2087 739 c12 -12 25 -20 28 -17 3 3 -7 13 -22 23 l-28 17 22 -23z"/>
<path d="M2433 728 c-11 -13 -23 -30 -28 -38 -4 -8 7 0 24 19 17 18 31 35 31
37 0 8 -7 3 -27 -18z"/>
<path d="M2260 730 c0 -5 4 -10 9 -10 6 0 13 5 16 10 3 6 -1 10 -9 10 -9 0
-16 -4 -16 -10z"/>
<path d="M891 714 c0 -11 3 -14 6 -6 3 7 2 16 -1 19 -3 4 -6 -2 -5 -13z"/>
<path d="M3652 662 c-2 -47 -5 -61 -14 -56 -10 5 -10 4 -1 -6 20 -21 24 -7 20
61 l-3 64 -2 -63z"/>
<path d="M2145 621 c-3 -5 -1 -12 5 -16 5 -3 10 1 10 9 0 18 -6 21 -15 7z"/>
<path d="M891 604 c0 -11 3 -14 6 -6 3 7 2 16 -1 19 -3 4 -6 -2 -5 -13z"/>
<path d="M922 600 c0 -14 2 -19 5 -12 2 6 2 18 0 25 -3 6 -5 1 -5 -13z"/>
<path d="M943 580 c0 -25 2 -35 4 -22 2 12 2 32 0 45 -2 12 -4 2 -4 -23z"/>
<path d="M2423 590 c14 -11 29 -20 33 -20 4 0 -1 9 -11 20 -10 11 -25 20 -33
20 -9 0 -6 -7 11 -20z"/>
<path d="M2111 586 c-10 -12 -8 -13 8 -9 12 3 21 9 21 14 0 14 -16 11 -29 -5z"/>
<path d="M3641 554 c0 -11 3 -14 6 -6 3 7 2 16 -1 19 -3 4 -6 -2 -5 -13z"/>
<path d="M902 540 c0 -14 2 -19 5 -12 2 6 2 18 0 25 -3 6 -5 1 -5 -13z"/>
<path d="M2058 540 c-7 -11 -16 -20 -21 -20 -4 0 -17 -9 -29 -20 -12 -11 -17
-20 -11 -20 7 0 28 16 49 35 20 19 41 32 47 28 6 -3 7 -1 3 5 -11 18 -24 15
-38 -8z"/>
<path d="M2460 556 c0 -2 7 -7 16 -10 8 -3 12 -2 9 4 -6 10 -25 14 -25 6z"/>
<path d="M2220 510 c-19 -16 -30 -29 -23 -30 7 0 16 6 20 13 4 7 19 21 33 30
13 9 20 17 14 17 -5 0 -25 -13 -44 -30z"/>
<path d="M2500 527 c0 -6 18 -24 39 -39 46 -33 65 -37 30 -7 -13 11 -34 29
-46 40 -15 12 -23 14 -23 6z"/>
<path d="M2170 509 c0 -5 5 -7 10 -4 6 3 10 8 10 11 0 2 -4 4 -10 4 -5 0 -10
-5 -10 -11z"/>
<path d="M3637 503 c-7 -12 -20 -109 -14 -103 6 6 26 110 21 110 -1 0 -5 -3
-7 -7z"/>
<path d="M2340 491 c0 -5 5 -13 10 -16 6 -3 10 -2 10 4 0 5 -4 13 -10 16 -5 3
-10 2 -10 -4z"/>
<path d="M1057 455 c3 -22 7 -42 9 -44 8 -9 2 45 -6 64 -7 14 -8 8 -3 -20z"/>
<path d="M2035 480 c-3 -5 -1 -10 4 -10 6 0 11 5 11 10 0 6 -2 10 -4 10 -3 0
-8 -4 -11 -10z"/>
<path d="M2495 480 c3 -5 8 -10 11 -10 2 0 4 5 4 10 0 6 -5 10 -11 10 -5 0 -7
-4 -4 -10z"/>
<path d="M925 458 c-4 -15 -5 -33 -2 -40 3 -7 6 1 7 17 1 25 3 27 9 11 7 -19
8 -19 13 2 4 12 2 20 -2 17 -5 -3 -10 1 -13 7 -2 7 -8 1 -12 -14z"/>
<path d="M2160 460 c0 -5 5 -10 11 -10 5 0 7 5 4 10 -3 6 -8 10 -11 10 -2 0
-4 -4 -4 -10z"/>
<path d="M2085 450 c-8 -13 3 -30 18 -30 7 0 6 4 -3 10 -13 9 -13 11 0 20 9 6
10 10 3 10 -6 0 -15 -4 -18 -10z"/>
<path d="M1940 440 c-13 -8 -12 -10 3 -10 9 0 17 5 17 10 0 12 -1 12 -20 0z"/>
<path d="M2390 440 c0 -5 5 -10 11 -10 5 0 7 5 4 10 -3 6 -8 10 -11 10 -2 0
-4 -4 -4 -10z"/>
<path d="M2605 430 c3 -5 12 -10 20 -10 8 0 18 -6 22 -13 7 -12 43 -31 43 -23
0 5 -75 56 -84 56 -4 0 -4 -4 -1 -10z"/>
<path d="M3480 430 c0 -5 5 -10 10 -10 6 0 10 5 10 10 0 6 -4 10 -10 10 -5 0
-10 -4 -10 -10z"/>
<path d="M3601 424 c0 -11 3 -14 6 -6 3 7 2 16 -1 19 -3 4 -6 -2 -5 -13z"/>
<path d="M1914 406 c1 -8 5 -18 8 -22 4 -3 5 1 4 10 -1 8 -5 18 -8 22 -4 3 -5
-1 -4 -10z"/>
<path d="M2115 409 c-4 -6 -14 -8 -24 -4 -13 5 -14 4 -3 -6 10 -11 15 -10 29
4 10 9 14 17 11 17 -4 0 -10 -5 -13 -11z"/>
<path d="M2420 410 c0 -5 5 -10 11 -10 5 0 7 5 4 10 -3 6 -8 10 -11 10 -2 0
-4 -4 -4 -10z"/>
<path d="M1879 393 c-13 -16 -12 -17 4 -4 16 13 21 21 13 21 -2 0 -10 -8 -17
-17z"/>
<path d="M1070 391 c0 -6 4 -11 9 -11 5 0 12 -12 14 -27 l4 -28 2 26 c0 15 -6
32 -14 39 -10 9 -15 9 -15 1z"/>
<path d="M3600 364 c-12 -31 -12 -34 -1 -34 5 0 11 14 13 30 6 37 1 38 -12 4z"/>
<path d="M941 364 c0 -11 3 -14 6 -6 3 7 2 16 -1 19 -3 4 -6 -2 -5 -13z"/>
<path d="M2477 369 c7 -7 15 -10 18 -7 3 3 -2 9 -12 12 -14 6 -15 5 -6 -5z"/>
<path d="M1821 356 c-14 -16 -7 -36 12 -36 7 0 6 4 -3 10 -13 9 -13 11 0 19 8
6 12 13 9 16 -4 3 -12 -1 -18 -9z"/>
<path d="M2020 360 c21 -6 22 -8 8 -14 -9 -4 -19 -14 -22 -22 -4 -11 0 -10 19
3 38 28 39 43 2 42 -30 -1 -31 -1 -7 -9z"/>
<path d="M3456 353 c-6 -14 -5 -15 5 -6 7 7 10 15 7 18 -3 3 -9 -2 -12 -12z"/>
<path d="M2745 335 c17 -14 35 -25 40 -25 6 0 -3 11 -20 25 -16 13 -34 24 -40
24 -5 0 4 -11 20 -24z"/>
<path d="M2500 345 c0 -2 10 -10 23 -16 20 -11 21 -11 8 4 -13 16 -31 23 -31
12z"/>
<path d="M1732 301 c-63 -34 -70 -40 -38 -34 14 3 31 11 37 19 6 8 17 14 23
14 6 0 20 7 30 15 30 23 7 16 -52 -14z"/>
<path d="M3428 309 c-8 -13 -30 -38 -48 -56 -27 -26 -29 -31 -11 -26 11 3 21
8 21 12 0 3 14 21 31 39 17 18 29 38 27 44 -2 6 -11 0 -20 -13z"/>
<path d="M3571 307 c0 -16 -15 -48 -31 -73 -17 -24 -29 -44 -26 -44 3 0 19 20
36 45 22 32 30 54 27 73 l-4 27 -2 -28z"/>
<path d="M1120 315 c0 -24 46 -78 75 -88 14 -6 12 -1 -8 15 -15 13 -36 37 -47
53 -11 17 -20 25 -20 20z"/>
<path d="M2805 300 c3 -5 11 -10 16 -10 6 0 7 5 4 10 -3 6 -11 10 -16 10 -6 0
-7 -4 -4 -10z"/>
<path d="M1958 293 c-10 -2 -18 -9 -18 -14 0 -14 16 -11 30 6 7 8 11 14 9 14
-2 -1 -12 -3 -21 -6z"/>
<path d="M2590 280 c13 -11 26 -18 28 -15 6 6 -28 34 -42 35 -5 0 1 -9 14 -20z"/>
<path d="M2840 280 c0 -6 7 -10 15 -10 8 0 15 2 15 4 0 2 -7 6 -15 10 -8 3
-15 1 -15 -4z"/>
<path d="M980 260 c0 -5 5 -10 11 -10 5 0 7 5 4 10 -3 6 -8 10 -11 10 -2 0 -4
-4 -4 -10z"/>
<path d="M1904 260 c-12 -4 -24 -15 -27 -24 -5 -12 1 -11 23 6 40 29 41 33 4
18z"/>
<path d="M2880 263 c0 -10 25 -23 79 -41 53 -18 48 -6 -6 14 -26 9 -54 22 -60
27 -8 6 -13 6 -13 0z"/>
<path d="M1725 250 c3 -5 8 -10 11 -10 2 0 4 5 4 10 0 6 -5 10 -11 10 -5 0 -7
-4 -4 -10z"/>
<path d="M1640 239 c0 -5 5 -7 10 -4 6 3 10 8 10 11 0 2 -4 4 -10 4 -5 0 -10
-5 -10 -11z"/>
<path d="M2655 240 c3 -5 8 -10 11 -10 2 0 4 5 4 10 0 6 -5 10 -11 10 -5 0 -7
-4 -4 -10z"/>
<path d="M3410 241 c0 -5 7 -11 14 -14 10 -4 13 -1 9 9 -6 15 -23 19 -23 5z"/>
<path d="M1000 233 c0 -14 69 -90 70 -76 0 7 -6 16 -13 20 -7 4 -23 21 -35 37
-12 16 -22 24 -22 19z"/>
<path d="M1708 223 c7 -3 16 -2 19 1 4 3 -2 6 -13 5 -11 0 -14 -3 -6 -6z"/>
<path d="M1835 221 c-3 -5 -2 -12 3 -15 5 -3 9 1 9 9 0 17 -3 19 -12 6z"/>
<path d="M1230 206 c8 -8 29 -18 45 -21 23 -5 26 -4 15 4 -8 6 -23 11 -32 11
-10 0 -18 5 -18 10 0 6 -5 10 -12 10 -9 0 -8 -4 2 -14z"/>
<path d="M1768 208 c5 -5 16 -8 23 -6 8 3 3 7 -10 11 -17 4 -21 3 -13 -5z"/>
<path d="M3305 205 c-16 -8 -23 -14 -14 -15 8 0 24 7 35 15 23 18 18 18 -21 0z"/>
<path d="M1065 200 c3 -5 8 -10 11 -10 2 0 4 5 4 10 0 6 -5 10 -11 10 -5 0 -7
-4 -4 -10z"/>
<path d="M1470 191 c0 -5 7 -11 14 -14 10 -4 13 -1 9 9 -6 15 -23 19 -23 5z"/>
<path d="M2785 190 c3 -5 8 -10 11 -10 2 0 4 5 4 10 0 6 -5 10 -11 10 -5 0 -7
-4 -4 -10z"/>
<path d="M3048 193 c6 -2 18 -2 25 0 6 3 1 5 -13 5 -14 0 -19 -2 -12 -5z"/>
<path d="M1420 186 c0 -2 7 -7 16 -10 8 -3 12 -2 9 4 -6 10 -25 14 -25 6z"/>
<path d="M3113 176 c-4 -5 -1 -6 5 -2 6 3 17 -1 26 -9 9 -9 17 -11 21 -5 3 5
21 10 38 11 70 1 61 14 -9 14 -42 0 -78 -4 -81 -9z"/>
<path d="M3326 181 c-4 -5 3 -7 14 -4 23 6 26 13 6 13 -8 0 -17 -4 -20 -9z"/>
<path d="M1341 164 c0 -11 3 -14 6 -6 3 7 2 16 -1 19 -3 4 -6 -2 -5 -13z"/>
<path d="M2755 170 c3 -5 14 -10 23 -10 15 0 15 2 2 10 -20 13 -33 13 -25 0z"/>
<path d="M3045 170 c3 -5 13 -10 21 -10 8 0 12 5 9 10 -3 6 -13 10 -21 10 -8
0 -12 -4 -9 -10z"/>
<path d="M3480 170 c0 -5 5 -10 10 -10 6 0 10 5 10 10 0 6 -4 10 -10 10 -5 0
-10 -4 -10 -10z"/>
<path d="M1403 153 c15 -2 39 -2 55 0 15 2 2 4 -28 4 -30 0 -43 -2 -27 -4z"/>
<path d="M3328 153 c6 -2 18 -2 25 0 6 3 1 5 -13 5 -14 0 -19 -2 -12 -5z"/>
<path d="M3410 113 c-30 -19 -44 -31 -30 -27 13 4 38 16 55 28 16 11 32 22 34
23 2 2 2 5 0 7 -2 1 -29 -12 -59 -31z"/>
<path d="M1100 120 c0 -5 5 -10 10 -10 6 0 10 5 10 10 0 6 -4 10 -10 10 -5 0
-10 -4 -10 -10z"/>
<path d="M1620 99 c0 -5 5 -7 10 -4 6 3 10 8 10 11 0 2 -4 4 -10 4 -5 0 -10
-5 -10 -11z"/>
<path d="M1145 90 c3 -5 14 -10 23 -10 15 0 15 2 2 10 -20 13 -33 13 -25 0z"/>
<path d="M1584 90 c-12 -5 -25 -15 -29 -22 -6 -10 -5 -11 6 0 7 6 21 12 31 12
10 0 18 5 18 10 0 6 -1 10 -2 9 -2 0 -13 -4 -24 -9z"/>
<path d="M1245 50 c11 -5 29 -8 40 -8 16 0 15 2 -5 8 -34 11 -60 11 -35 0z"/>
<path d="M1413 43 c9 -2 23 -2 30 0 6 3 -1 5 -18 5 -16 0 -22 -2 -12 -5z"/>
<path d="M3103 43 c15 -2 39 -2 55 0 15 2 2 4 -28 4 -30 0 -43 -2 -27 -4z"/>
<path d="M3223 43 c15 -2 37 -2 50 0 12 2 0 4 -28 4 -27 0 -38 -2 -22 -4z"/>
</g>
</svg>
